<svg width="60" height="60" viewBox="0 0 60 60" fill="none" xmlns="http://www.w3.org/2000/svg">
<path d="M27.5 7.53135C27.4957 6.15065 28.6115 5.02785 29.9922 5.02353C31.373 5.0192 32.4957 6.13498 32.5 7.51568L27.5 7.53135Z" fill="white"/>
<path d="M35.7895 25.7377L32.5673 28.98L32.5 7.51567L27.5 7.53135L27.5673 28.9957L24.3251 25.7737C23.3457 24.8004 21.7628 24.8053 20.7895 25.7847C19.8163 26.764 19.8212 28.347 20.8006 29.3202L20.8069 29.3265L20.8094 29.329L30.0975 38.559L39.3015 29.2967L39.3155 29.2827L39.3175 29.2807L39.3195 29.2787L39.3343 29.264L35.7895 25.7377Z" fill="white"/>
<path d="M39.336 29.2622C40.3092 28.2827 40.3042 26.6997 39.325 25.7265C38.3455 24.7533 36.7625 24.7584 35.7895 25.7377L39.336 29.2622Z" fill="white"/>
<path d="M10 30C10 27.2385 12.2386 25 15 25C16.3807 25 17.5 23.8807 17.5 22.5C17.5 21.1193 16.3807 20 15 20C9.47715 20 5 24.4771 5 30V45C5 50.5227 9.47715 55 15 55H42.5C49.4035 55 55 49.4035 55 42.5V30C55 24.4771 50.5227 20 45 20C43.6193 20 42.5 21.1193 42.5 22.5C42.5 23.8807 43.6193 25 45 25C47.7615 25 50 27.2385 50 30V42.5C50 46.6423 46.6423 50 42.5 50H15C12.2386 50 10 47.7615 10 45V30Z" fill="white"/>
</svg>
