<svg width="60" height="60" viewBox="0 0 60 60" fill="none" xmlns="http://www.w3.org/2000/svg">
<path d="M27.5 36.0512C27.4957 37.4319 28.6115 38.5547 29.9922 38.559C31.373 38.5633 32.4957 37.4475 32.5 36.0668L27.5 36.0512Z" fill="white"/>
<path d="M35.7895 17.8448L32.5673 14.6025L32.5 36.0668L27.5 36.0512L27.5673 14.5868L24.3251 17.8088C23.3457 18.7821 21.7628 18.7772 20.7895 17.7978C19.8163 16.8185 19.8212 15.2355 20.8006 14.2623L20.8069 14.256L20.8094 14.2535L30.0975 5.02351L39.3015 14.2858L39.3155 14.2998L39.3175 14.3018L39.3195 14.3038L39.3343 14.3185L35.7895 17.8448Z" fill="white"/>
<path d="M39.336 14.3203C40.3092 15.2998 40.3042 16.8828 39.325 17.856C38.3455 18.8292 36.7625 18.8242 35.7895 17.8448L39.336 14.3203Z" fill="white"/>
<path d="M10 30C10 27.2385 12.2386 25 15 25C16.3807 25 17.5 23.8807 17.5 22.5C17.5 21.1193 16.3807 20 15 20C9.47715 20 5 24.4771 5 30V45C5 50.5228 9.47715 55 15 55H42.5C49.4035 55 55 49.4035 55 42.5V30C55 24.4771 50.5228 20 45 20C43.6193 20 42.5 21.1193 42.5 22.5C42.5 23.8807 43.6193 25 45 25C47.7615 25 50 27.2385 50 30V42.5C50 46.6423 46.6423 50 42.5 50H15C12.2386 50 10 47.7615 10 45V30Z" fill="white"/>
</svg>
